<svg xmlns="http://www.w3.org/2000/svg" width="192" height="192" viewBox="0 0 192 192" fill="none" stroke="#6f8fb8" stroke-width="2.2" stroke-linecap="round" stroke-linejoin="round">
  <rect x="14" y="14" width="40" height="28" rx="5"/>
  <circle cx="24" cy="28" r="2.5"/>
  <circle cx="44" cy="28" r="2.5"/>

  <rect x="72" y="16" width="52" height="30" rx="6"/>
  <path d="M92 27l14 7-14 7z" fill="#6f8fb8" stroke="none"/>

  <rect x="138" y="18" width="40" height="24" rx="5"/>
  <path d="M148 30h22"/>
  <path d="M148 36h16"/>

  <rect x="18" y="90" width="52" height="34" rx="7"/>
  <path d="M36 133h16"/>

  <path d="M88 94l24 12-24 12z" fill="#6f8fb8" stroke="none"/>

  <rect x="128" y="86" width="50" height="34" rx="7"/>
  <path d="M140 130h26"/>
  <path d="M142 144c6-8 12-8 18 0"/>
</svg>
