<svg xmlns="http://www.w3.org/2000/svg" viewBox="0 0 98 96" role="img" aria-label="GitHub">
  <path fill="currentColor" fill-rule="evenodd"
    d="M48.854 0C21.839 0 0 22 0 49.217c0 21.756 13.993 40.172 33.405 46.69 2.427.49 3.316-1.06 3.316-2.363 0-1.158-.08-5.004-.08-9.097-13.59 2.934-16.42-5.867-16.42-5.867-2.184-5.704-5.42-7.17-5.42-7.17-4.448-3.015.324-3.015.324-3.015 4.934.326 7.523 5.075 7.523 5.075 4.367 7.496 11.404 5.35 14.235 4.046.403-3.178 1.706-5.35 3.123-6.586-10.839-1.158-22.243-5.35-22.243-24.03 0-5.31 1.94-9.65 5.014-13.045-.483-1.22-2.184-6.097.483-12.668 0 0 4.125-1.304 13.426 5.075a46.97 46.97 0 0 1 12.214-1.63c4.125 0 8.33.571 12.214 1.63 9.301-6.38 13.426-5.075 13.426-5.075 2.667 6.571.966 11.448.483 12.668 3.154 3.395 5.014 7.735 5.014 13.045 0 18.68-11.404 22.79-22.324 23.948 1.788 1.55 3.405 4.7 3.405 9.486 0 6.856-.08 12.367-.08 14.09 0 1.304.89 2.853 3.316 2.364C84.007 89.39 98 70.974 98 49.217 98 22 76.103 0 48.854 0Z">
  </path>
</svg>
